<svg width="212" height="209" viewBox="0 0 212 209" fill="none" xmlns="http://www.w3.org/2000/svg">
<path fill-rule="evenodd" clip-rule="evenodd" d="M139.466 71.5822C155.58 84.009 161.345 103.727 156.796 121.357C158.706 108.897 154.816 95.7165 145.127 86.063C129.465 70.4867 103.315 69.9048 86.9933 84.7963C69.4209 100.818 69.0396 127.828 85.7776 144.362C95.5709 154.016 108.976 157.884 121.686 156.002C105.607 160.042 87.8269 155.831 75.2208 143.439C54.9049 123.412 56.2942 90.0682 79.4229 71.8903C96.7867 58.2312 121.999 58.0943 139.501 71.5822H139.466Z" fill="#C59E72"/>
<path fill-rule="evenodd" clip-rule="evenodd" d="M67.8929 175.036C47.7856 155.215 40.9794 127.212 47.5077 101.845C44.4522 121.871 50.7026 142.994 66.3651 158.398C92.5143 184.176 134.917 184.176 161.032 158.398C187.181 132.621 187.181 90.8216 161.032 65.0783C145.404 49.6733 123.943 43.4771 103.662 46.4896C129.36 40.0536 157.767 46.7292 177.909 66.5845C208.295 96.5391 208.295 145.082 177.909 175.036C147.523 204.991 98.2791 204.991 67.8929 175.036Z" fill="#EC9E7C"/>
<path fill-rule="evenodd" clip-rule="evenodd" d="M180.964 30.6047C208.398 57.6491 217.636 95.7847 208.711 130.327C212.913 103.042 204.336 74.2523 183.013 53.2329C147.382 18.1095 89.6312 18.1095 54.0007 53.2329C18.3703 88.3562 18.3703 145.287 54.0007 180.41C75.3238 201.43 104.529 209.85 132.207 205.743C97.1666 214.541 58.4806 205.4 31.0465 178.39C-10.3488 137.584 -10.3488 71.4109 31.0465 30.6047C72.4409 -10.2016 139.569 -10.2016 180.964 30.6047Z" fill="#DF5430"/>
</svg>
